<svg width="20" height="20" viewBox="0 0 20 20" fill="none" xmlns="http://www.w3.org/2000/svg">
<path fill-rule="evenodd" clip-rule="evenodd" d="M0 10C0 4.47745 4.47712 0 10 0C15.5222 0 20 4.47779 20 10C20 15.5222 15.5222 20 10 20C4.47712 20 0 15.5225 0 10ZM18.5 10C18.5 5.30621 14.6938 1.5 10 1.5C5.30557 1.5 1.5 5.30586 1.5 10C1.5 14.6941 5.30557 18.5 10 18.5C14.6938 18.5 18.5 14.6938 18.5 10Z" fill="black"/>
<rect x="3.69238" y="9.19238" width="13" height="2" rx="1" fill="black"/>
<rect x="9.19238" y="16.6924" width="13" height="2" rx="1" transform="rotate(-90 9.19238 16.6924)" fill="black"/>
</svg>
