<svg width="25" height="18" viewBox="0 0 25 18" fill="none" xmlns="http://www.w3.org/2000/svg">
<path d="M21.6648 2.41176H18.097V0.951539H16.568V2.41176H8.41314V0.951539H6.88411V2.41176H2.98814C1.27766 2.41176 0.258301 2.77681 0.258301 4.24064V18.0003H24.7228V4.21436C24.7228 2.75054 23.3752 2.41176 21.6648 2.41176ZM1.78733 4.21436C1.78733 3.73605 2.29701 3.48879 3.31637 3.48879H21.6648C22.3843 3.48879 23.1938 3.46677 23.1938 4.21436V6.79242L1.78733 6.75614V4.21436ZM1.78733 17.014V7.47718H23.1938V17.014H1.78733Z" fill="white"/>
<path d="M8.69435 15.2786C8.67701 15.2959 8.67268 15.3132 8.68135 15.3306C8.69001 15.3479 8.70735 15.3566 8.73335 15.3566H11.7363C11.7797 15.3566 11.8143 15.3739 11.8403 15.4086C11.875 15.4346 11.8923 15.4692 11.8923 15.5126V16.5006C11.8923 16.5439 11.875 16.5829 11.8403 16.6176C11.8143 16.6436 11.7797 16.6566 11.7363 16.6566H7.01735C6.97401 16.6566 6.93501 16.6436 6.90035 16.6176C6.87435 16.5829 6.86135 16.5439 6.86135 16.5006V15.4606C6.86135 15.3826 6.88301 15.3176 6.92635 15.2656L7.69335 14.2386C8.51668 13.1552 9.07135 12.3882 9.35735 11.9376C9.89468 11.1229 10.1633 10.4339 10.1633 9.87055C10.1633 9.52389 10.0767 9.25089 9.90335 9.05155C9.73868 8.85222 9.51768 8.75255 9.24035 8.75255C8.97168 8.75255 8.75501 8.85222 8.59035 9.05155C8.43435 9.24222 8.35635 9.49789 8.35635 9.81855V10.3256C8.35635 10.3689 8.33901 10.4079 8.30435 10.4426C8.27835 10.4686 8.24368 10.4816 8.20035 10.4816H6.99135C6.94801 10.4816 6.90901 10.4686 6.87435 10.4426C6.84835 10.4079 6.83535 10.3689 6.83535 10.3256V9.76655C6.86135 9.07322 7.09968 8.51422 7.55035 8.08955C8.00968 7.66489 8.59901 7.45256 9.31835 7.45256C10.029 7.45256 10.601 7.67789 11.0343 8.12855C11.4677 8.57055 11.6843 9.15555 11.6843 9.88355C11.6843 10.3169 11.6063 10.7502 11.4503 11.1836C11.2943 11.6082 11.056 12.0546 10.7353 12.5226C10.4233 12.9906 9.91635 13.6796 9.21435 14.5896L8.69435 15.2786ZM18.1117 12.8346C18.1117 12.8692 18.116 12.8952 18.1247 12.9126C18.1767 13.1032 18.2027 13.4152 18.2027 13.8486C18.2027 14.2906 18.1853 14.5982 18.1507 14.7716C18.09 15.4042 17.8517 15.8939 17.4357 16.2406C17.0197 16.5872 16.465 16.7606 15.7717 16.7606C15.1043 16.7606 14.5627 16.5959 14.1467 16.2666C13.7393 15.9372 13.488 15.4476 13.3927 14.7976C13.3667 14.5896 13.3537 14.4639 13.3537 14.4206V14.3946C13.3537 14.3079 13.4013 14.2646 13.4967 14.2646H14.7057C14.801 14.2646 14.853 14.3166 14.8617 14.4206L14.9007 14.6676C15.0047 15.1962 15.295 15.4606 15.7717 15.4606C16.0057 15.4606 16.1963 15.3912 16.3437 15.2526C16.491 15.1139 16.5863 14.9232 16.6297 14.6806C16.673 14.4552 16.6947 14.1736 16.6947 13.8356C16.6947 13.5149 16.6687 13.2376 16.6167 13.0036C16.4953 12.5269 16.2137 12.2886 15.7717 12.2886C15.295 12.2886 14.996 12.4879 14.8747 12.8866C14.8487 12.9819 14.7923 13.0296 14.7057 13.0296H13.4967C13.4533 13.0296 13.4143 13.0166 13.3797 12.9906C13.3537 12.9559 13.3407 12.9169 13.3407 12.8736V7.71255C13.3407 7.66922 13.3537 7.63455 13.3797 7.60855C13.4143 7.57389 13.4533 7.55655 13.4967 7.55655H17.8907C17.934 7.55655 17.9687 7.57389 17.9947 7.60855C18.0293 7.63455 18.0467 7.66922 18.0467 7.71255V8.70055C18.0467 8.74389 18.0293 8.78289 17.9947 8.81755C17.9687 8.84355 17.934 8.85655 17.8907 8.85655H14.9137C14.8703 8.85655 14.8487 8.87822 14.8487 8.92155L14.8357 11.4826C14.8357 11.5086 14.8443 11.5259 14.8617 11.5346C14.879 11.5346 14.8963 11.5259 14.9137 11.5086C15.061 11.3439 15.2473 11.2139 15.4727 11.1186C15.7067 11.0232 15.9493 10.9756 16.2007 10.9756C16.738 10.9756 17.1713 11.1402 17.5007 11.4696C17.83 11.7902 18.0337 12.2452 18.1117 12.8346Z" fill="white"/>
<path d="M10.7569 6.03C10.6089 6.03 10.4889 5.984 10.3969 5.892C10.3049 5.798 10.2589 5.675 10.2589 5.523V5.271C10.2589 5.251 10.2689 5.241 10.2889 5.241H10.4419C10.4619 5.241 10.4719 5.251 10.4719 5.271V5.526C10.4719 5.62 10.4979 5.697 10.5499 5.757C10.6019 5.815 10.6709 5.844 10.7569 5.844C10.8409 5.844 10.9089 5.815 10.9609 5.757C11.0149 5.697 11.0419 5.62 11.0419 5.526V3.936C11.0419 3.916 11.0519 3.906 11.0719 3.906H11.2249C11.2449 3.906 11.2549 3.916 11.2549 3.936V5.523C11.2549 5.675 11.2089 5.798 11.1169 5.892C11.0249 5.984 10.9049 6.03 10.7569 6.03ZM12.3967 4.518C12.3967 4.498 12.4067 4.488 12.4267 4.488H12.5797C12.5997 4.488 12.6097 4.498 12.6097 4.518V5.976C12.6097 5.996 12.5997 6.006 12.5797 6.006H12.4267C12.4067 6.006 12.3967 5.996 12.3967 5.976V5.874C12.3967 5.868 12.3947 5.865 12.3907 5.865C12.3887 5.865 12.3857 5.867 12.3817 5.871C12.3197 5.975 12.2197 6.027 12.0817 6.027C11.9617 6.027 11.8657 5.991 11.7937 5.919C11.7237 5.845 11.6887 5.734 11.6887 5.586V4.518C11.6887 4.498 11.6987 4.488 11.7187 4.488H11.8717C11.8917 4.488 11.9017 4.498 11.9017 4.518V5.538C11.9017 5.638 11.9217 5.714 11.9617 5.766C12.0037 5.816 12.0637 5.841 12.1417 5.841C12.2217 5.841 12.2837 5.812 12.3277 5.754C12.3737 5.696 12.3967 5.617 12.3967 5.517V4.518ZM13.1545 4.212C13.1045 4.212 13.0635 4.196 13.0315 4.164C13.0015 4.132 12.9865 4.092 12.9865 4.044C12.9865 3.994 13.0015 3.954 13.0315 3.924C13.0635 3.892 13.1045 3.876 13.1545 3.876C13.2025 3.876 13.2415 3.892 13.2715 3.924C13.3035 3.954 13.3195 3.994 13.3195 4.044C13.3195 4.092 13.3035 4.132 13.2715 4.164C13.2415 4.196 13.2025 4.212 13.1545 4.212ZM13.0795 6.006C13.0595 6.006 13.0495 5.996 13.0495 5.976V4.518C13.0495 4.498 13.0595 4.488 13.0795 4.488H13.2325C13.2525 4.488 13.2625 4.498 13.2625 4.518V5.976C13.2625 5.996 13.2525 6.006 13.2325 6.006H13.0795ZM14.24 4.467C14.362 4.467 14.456 4.509 14.522 4.593C14.59 4.677 14.624 4.794 14.624 4.944V5.976C14.624 5.996 14.614 6.006 14.594 6.006H14.441C14.421 6.006 14.411 5.996 14.411 5.976V4.962C14.411 4.864 14.389 4.788 14.345 4.734C14.303 4.68 14.244 4.653 14.168 4.653C14.088 4.653 14.025 4.682 13.979 4.74C13.935 4.798 13.913 4.877 13.913 4.977V5.976C13.913 5.996 13.903 6.006 13.883 6.006H13.73C13.71 6.006 13.7 5.996 13.7 5.976V4.518C13.7 4.498 13.71 4.488 13.73 4.488H13.883C13.903 4.488 13.913 4.498 13.913 4.518V4.614C13.913 4.618 13.915 4.621 13.919 4.623C13.923 4.625 13.926 4.623 13.928 4.617C13.964 4.567 14.009 4.53 14.063 4.506C14.119 4.48 14.178 4.467 14.24 4.467Z" fill="white"/>
</svg>
