<svg width="18" height="20" viewBox="0 0 18 20" fill="none" xmlns="http://www.w3.org/2000/svg">
<mask id="mask0" mask-type="alpha" maskUnits="userSpaceOnUse" x="0" y="0" width="17" height="18">
<path fill-rule="evenodd" clip-rule="evenodd" d="M0.75 0.792969H16.8698V17.8369H0.75V0.792969Z" fill="white"/>
</mask>
<g mask="url(#mask0)">
<path fill-rule="evenodd" clip-rule="evenodd" d="M4.58135 15.6017C5.01635 15.6017 5.4266 15.7761 5.86085 15.9609C8.52109 17.2614 11.6673 16.6698 13.7171 14.5034C16.4216 11.6424 16.4216 6.98844 13.7171 4.12899C12.4076 2.74447 10.6661 1.98242 8.81209 1.98242C6.95735 1.98242 5.2151 2.74526 3.90635 4.12978C1.85585 6.29617 1.29785 9.62268 2.5166 12.4084C2.6921 12.8675 2.8616 13.3147 2.8616 13.7794C2.8616 14.2433 2.71085 14.7104 2.5781 15.1227C2.4686 15.4621 2.30285 15.9744 2.40935 16.087C2.5136 16.2012 3.0011 16.0211 3.32285 15.9046C3.7091 15.765 4.1471 15.6048 4.58135 15.6017ZM8.79333 17.837C7.64733 17.837 6.49383 17.5809 5.41458 17.0528C5.09658 16.918 4.79883 16.7911 4.58508 16.7911C4.33908 16.7927 4.00833 16.9132 3.68883 17.0298C3.03333 17.2677 2.21733 17.5643 1.61358 16.9283C1.01208 16.2915 1.28958 15.4312 1.51308 14.7389C1.62333 14.3979 1.73658 14.0459 1.73658 13.7794C1.73658 13.5606 1.63683 13.2814 1.48383 12.8794C0.0790778 9.67184 0.728578 5.80612 3.11133 3.28844C4.63233 1.67951 6.65658 0.792969 8.81133 0.792969C10.9661 0.792969 12.9911 1.67871 14.5121 3.28765C17.6561 6.61177 17.6561 12.0198 14.5121 15.344C12.9708 16.9743 10.8956 17.837 8.79333 17.837Z" fill="white"/>
</g>
<path fill-rule="evenodd" clip-rule="evenodd" d="M11.772 10.4375C11.358 10.4375 11.019 10.083 11.019 9.64453C11.019 9.20602 11.3513 8.85156 11.7653 8.85156H11.772C12.186 8.85156 12.522 9.20602 12.522 9.64453C12.522 10.083 12.186 10.4375 11.772 10.4375Z" fill="white"/>
<path fill-rule="evenodd" clip-rule="evenodd" d="M8.7657 10.4375C8.3517 10.4375 8.0127 10.083 8.0127 9.64453C8.0127 9.20602 8.3442 8.85156 8.75895 8.85156H8.7657C9.1797 8.85156 9.5157 9.20602 9.5157 9.64453C9.5157 10.083 9.1797 10.4375 8.7657 10.4375Z" fill="white"/>
<path fill-rule="evenodd" clip-rule="evenodd" d="M5.75886 10.4375C5.34486 10.4375 5.00586 10.083 5.00586 9.64453C5.00586 9.20602 5.33811 8.85156 5.75211 8.85156H5.75886C6.17286 8.85156 6.50886 9.20602 6.50886 9.64453C6.50886 10.083 6.17286 10.4375 5.75886 10.4375Z" fill="white"/>
</svg>
