<svg width="10" height="10" viewBox="0 0 10 10" fill="none" xmlns="http://www.w3.org/2000/svg">
<g clip-path="url(#clip0)">
<path d="M4.61 0.683594C3.69823 0.683594 2.80693 0.953966 2.04882 1.46052C1.29071 1.96707 0.699837 2.68706 0.350917 3.52942C0.00199745 4.37179 -0.0892959 5.29871 0.0885819 6.19296C0.26646 7.08721 0.70552 7.90864 1.35024 8.55336C1.99496 9.19808 2.81638 9.63714 3.71064 9.81501C4.60489 9.99289 5.53181 9.9016 6.37417 9.55268C7.21654 9.20376 7.93652 8.61288 8.44308 7.85477C8.94963 7.09666 9.22 6.20537 9.22 5.29359C9.21868 4.07135 8.73256 2.89955 7.8683 2.03529C7.00405 1.17104 5.83224 0.684916 4.61 0.683594V0.683594ZM7.93189 3.37276H6.69449C6.41749 2.73081 6.05277 2.1304 5.61076 1.58869C6.58903 1.85489 7.42299 2.49589 7.93189 3.37276ZM6.33875 5.29359C6.3356 5.68473 6.27396 6.07319 6.15589 6.44609H3.06412C2.94604 6.07319 2.88441 5.68473 2.88125 5.29359C2.88441 4.90246 2.94604 4.51399 3.06412 4.14109H6.15589C6.27396 4.51399 6.3356 4.90246 6.33875 5.29359ZM3.37222 7.21443H5.84779C5.52172 7.85819 5.10487 8.45177 4.61 8.97698C4.11495 8.45191 3.69808 7.85831 3.37222 7.21443ZM3.37222 3.37276C3.69828 2.729 4.11514 2.13542 4.61 1.6102C5.10505 2.13527 5.52192 2.72888 5.84779 3.37276H3.37222ZM3.61117 1.58869C3.16848 2.13028 2.80311 2.7307 2.52551 3.37276H1.28811C1.79746 2.49549 2.63218 1.85444 3.61117 1.58869ZM0.945436 4.14109H2.26659C2.16699 4.51725 2.11536 4.90449 2.11292 5.29359C2.11536 5.6827 2.16699 6.06994 2.26659 6.44609H0.945436C0.709305 5.6959 0.709305 4.89128 0.945436 4.14109ZM1.28811 7.21443H2.52551C2.80311 7.85649 3.16848 8.4569 3.61117 8.9985C2.63218 8.73275 1.79746 8.0917 1.28811 7.21443ZM5.61076 8.9985C6.05277 8.45679 6.41749 7.85638 6.69449 7.21443H7.93189C7.42299 8.0913 6.58903 8.7323 5.61076 8.9985ZM8.27457 6.44609H6.95342C7.05301 6.06994 7.10464 5.6827 7.10709 5.29359C7.10464 4.90449 7.05301 4.51725 6.95342 4.14109H8.2738C8.50993 4.89128 8.50993 5.6959 8.2738 6.44609H8.27457Z" fill="#130F26"/>
</g>
<defs>
<clipPath id="clip0">
<rect width="9.22" height="9.22" fill="white" transform="translate(0 0.683594)"/>
</clipPath>
</defs>
</svg>
