<svg width="22" height="24" viewBox="0 0 22 24" fill="none" xmlns="http://www.w3.org/2000/svg">
<path fill-rule="evenodd" clip-rule="evenodd" d="M20.7191 7.01373L20.0189 5.79863C19.4265 4.77047 18.1137 4.41577 17.0841 5.00572V5.00572C16.594 5.29443 16.0092 5.37634 15.4587 5.23339C14.9081 5.09044 14.437 4.73437 14.1493 4.24371C13.9642 3.93183 13.8647 3.57661 13.861 3.21396V3.21396C13.8777 2.63254 13.6583 2.06912 13.2529 1.65204C12.8475 1.23497 12.2905 0.99976 11.7088 1H10.2981C9.7282 0.999994 9.18184 1.22707 8.77986 1.63098C8.37789 2.03489 8.15344 2.58233 8.15618 3.15217V3.15217C8.13929 4.32871 7.18065 5.27358 6.004 5.27346C5.64135 5.26969 5.28613 5.17023 4.97425 4.98513V4.98513C3.94468 4.39518 2.63187 4.74987 2.03947 5.77803L1.28775 7.01373C0.696076 8.04061 1.04594 9.3526 2.07036 9.94851V9.94851C2.73626 10.333 3.14646 11.0435 3.14646 11.8124C3.14646 12.5813 2.73626 13.2918 2.07036 13.6762V13.6762C1.04724 14.2681 0.696996 15.5769 1.28775 16.6007V16.6007L1.99828 17.8261C2.27584 18.3269 2.74154 18.6965 3.29233 18.853C3.84312 19.0096 4.43358 18.9402 4.93306 18.6602V18.6602C5.42408 18.3737 6.0092 18.2952 6.55837 18.4421C7.10754 18.5891 7.57525 18.9493 7.85755 19.4428C8.04265 19.7547 8.14211 20.1099 8.14588 20.4725V20.4725C8.14588 21.6612 9.10944 22.6247 10.2981 22.6247H11.7088C12.8934 22.6247 13.8553 21.6674 13.861 20.4828V20.4828C13.8582 19.9112 14.0841 19.3622 14.4883 18.958C14.8925 18.5538 15.4415 18.3279 16.0132 18.3307C16.3749 18.3403 16.7287 18.4394 17.0429 18.619V18.619C18.0698 19.2107 19.3818 18.8608 19.9777 17.8364V17.8364L20.7191 16.6007C21.0061 16.1081 21.0849 15.5214 20.938 14.9706C20.7911 14.4197 20.4306 13.9502 19.9365 13.6659V13.6659C19.4423 13.3816 19.0819 12.9121 18.935 12.3612C18.7881 11.8104 18.8669 11.2237 19.1539 10.7311C19.3405 10.4053 19.6107 10.1351 19.9365 9.94851V9.94851C20.9548 9.35292 21.3038 8.04859 20.7191 7.02403V7.02403V7.01373Z" stroke="#FCC84F" stroke-width="1.5" stroke-linecap="round" stroke-linejoin="round"/>
<ellipse opacity="0.4" cx="11.0086" cy="11.8124" rx="2.96568" ry="2.96567" stroke="#FCC84F" stroke-width="1.5" stroke-linecap="round" stroke-linejoin="round"/>
</svg>
